:FULLY-SPECIFIED
:FORCE-ALL-JOINTS-BE-3DOF
:DEGREES
194
root 8.1354 16.6407 -10.2503 6.98057 4.05048 -2.84593
lfemur -39.0825 6.09658 -19.8417
ltibia 45.0342 -0 0
lfoot -15.0718 9.85642 -2.06284e-06
ltoes -12.4238 0 0
rfemur -9.9454 5.43273 28.8682
rtibia 24.2058 -0 0
rfoot -20.8381 1.59908 0.000467733
rtoes -9.65128 0 0
lowerback -4.17451 1.58978 0.95006
upperback -1.38037 2.04653 3.34259
thorax 0.832078 1.03013 3.00003
lowerneck -13.7439 -6.75307 -15.6675
upperneck 13.2225 -8.71451 16.2456
head 7.77655 -3.66868 7.05461
lclavicle 1.65447e-14 2.39867e-14 0
lhumerus -48.977 -9.73746 95.6576
lradius 30.8843 -0 0
lwrist 14.06 0 0
lhand -12.5441 -24.7627 0.00161788
lfingers 7.12502 0 0
lthumb 13.5326 4.77911 0.0018575
rclavicle 1.65447e-14 2.39867e-14 0
rhumerus -36.332 8.37643 -78.0884
rradius 48.0333 -0 0
rwrist -24.6607 0 0
rhand -34.258 -28.0906 -0.00177822
rfingers 7.12502 0 0
rthumb -7.42867 -57.9404 -0.00169483
195
root 8.14159 16.6356 -10.1186 6.94123 3.92932 -2.9435
lfemur -39.419 5.81311 -19.7462
ltibia 43.1438 -0 0
lfoot -14.9979 9.49867 -0.000263458
ltoes -12.6755 0 0
rfemur -9.04443 5.48009 29.0378
rtibia 23.5152 -0 0
rfoot -20.7329 1.77481 0.000440521
rtoes -8.83937 0 0
lowerback -4.27296 1.55403 0.9511
upperback -1.11258 1.98624 3.34945
thorax 1.16498 0.997126 3.01176
lowerneck -14.7041 -6.78826 -15.2359
upperneck 13.5432 -8.70127 15.9371
head 8.0156 -3.62152 6.86723
lclavicle 1.08503e-14 2.33241e-14 0
lhumerus -48.5449 -9.6169 95.4797
lradius 30.5411 -0 0
lwrist 13.513 0 0
lhand -12.4718 -24.623 0.00185335
lfingers 7.12502 0 0
lthumb 13.6024 4.91466 0.00217801
rclavicle 1.08503e-14 2.33241e-14 0
rhumerus -35.6552 8.52366 -78.2787
rradius 48.4039 -0 0
rwrist -24.872 0 0
rhand -34.2221 -28.5121 -0.00301128
rfingers 7.12502 0 0
rthumb -7.394 -58.3631 -0.0028824
196
root 8.14779 16.6306 -9.98691 6.90803 3.81208 -3.04454
lfemur -39.7069 5.49693 -19.6208
ltibia 41.1999 -0 0
lfoot -14.9271 9.15152 -0.000487321
ltoes -12.8032 0 0
rfemur -8.1204 5.50065 29.2048
rtibia 22.7757 -0 0
rfoot -20.5907 1.98437 0.000101508
rtoes -7.9878 0 0
lowerback -4.39102 1.50919 0.948686
upperback -0.815998 1.91233 3.35316
thorax 1.5391 0.95694 3.02296
lowerneck -15.8106 -6.82508 -14.736
upperneck 13.917 -8.69152 15.5783
head 8.29327 -3.56998 6.64905
lclavicle 5.15595e-15 2.26614e-14 0
lhumerus -48.0604 -9.52634 95.3024
lradius 30.177 -0 0
lwrist 12.9465 0 0
lhand -12.4861 -24.4327 0.00129665
lfingers 7.12502 0 0
lthumb 13.5886 5.10563 0.00158091
rclavicle 5.15595e-15 2.26614e-14 0
rhumerus -34.9465 8.71625 -78.4985
rradius 48.7831 -0 0
rwrist -25.0618 0 0
rhand -34.1401 -28.9601 -0.00327355
rfingers 7.12502 0 0
rthumb -7.31487 -58.8138 -0.00314349
197
root 8.15398 16.6256 -9.85522 6.8837 3.68938 -3.1515
lfemur -39.9648 5.15261 -19.4557
ltibia 39.2502 -0 0
lfoot -14.8631 8.85786 -0.000525822
ltoes -12.8813 0 0
rfemur -7.17369 5.50058 29.3689
rtibia 21.9795 -0 0
rfoot -20.4205 2.21615 -0.000323247
rtoes -7.19409 0 0
lowerback -4.52088 1.46715 0.956533
upperback -0.532782 1.84173 3.35568
thorax 1.90633 0.918522 3.02782
lowerneck -16.8908 -6.85097 -14.2445
upperneck 14.2921 -8.67969 15.2234
head 8.56711 -3.51877 6.43446
lclavicle -5.384e-16 2.19988e-14 0
lhumerus -47.6132 -9.46521 95.1506
lradius 29.8123 -0 0
lwrist 12.3892 0 0
lhand -12.5464 -24.2332 0.000605162
lfingers 7.12502 0 0
lthumb 13.5305 5.3083 0.000777291
rclavicle -5.384e-16 2.19988e-14 0
rhumerus -34.2983 8.94065 -78.7367
rradius 49.164 -0 0
rwrist -25.2426 0 0
rhand -34.0351 -29.3914 -0.00249637
rfingers 7.12502 0 0
rthumb -7.21351 -59.2485 -0.00240282
198
root 8.16017 16.6205 -9.72353 6.87099 3.55184 -3.26689
lfemur -40.2116 4.78482 -19.2412
ltibia 37.3424 -0 0
lfoot -14.8096 8.66057 -0.000351322
ltoes -12.9845 0 0
rfemur -6.2046 5.48602 29.5301
rtibia 21.1184 -0 0
rfoot -20.2311 2.45854 -0.000509878
rtoes -6.55575 0 0
lowerback -4.65471 1.43986 0.988292
upperback -0.305086 1.79136 3.35924
thorax 2.21861 0.890904 3.02069
lowerneck -17.772 -6.85902 -13.839
upperneck 14.6168 -8.66148 14.9267
head 8.79478 -3.47322 6.25772
lclavicle -6.23275e-15 2.13362e-14 0
lhumerus -47.2932 -9.43371 95.0486
lradius 29.4675 -0 0
lwrist 11.8696 0 0
lhand -12.612 -24.066 0.000157169
lfingers 7.12502 0 0
lthumb 13.4672 5.47898 0.000211231
rclavicle -6.23275e-15 2.13362e-14 0
rhumerus -33.8029 9.18231 -78.9833
rradius 49.5399 -0 0
rwrist -25.4266 0 0
rhand -33.9301 -29.7628 -0.001108
rfingers 7.12502 0 0
rthumb -7.11214 -59.6233 -0.0010683
199
root 8.16636 16.6155 -9.59183 6.87273 3.39009 -3.3932
lfemur -40.4661 4.39844 -18.9672
ltibia 35.5243 0 0
lfoot -14.7702 8.60254 0
ltoes -13.1875 0 0
rfemur -5.2134 5.46315 29.6884
rtibia 20.1847 0 0
rfoot -20.0315 2.69992 0
rtoes -6.17031 0 0
lowerback -4.78468 1.43934 1.05755
upperback -0.175062 1.77814 3.36623
thorax 2.42786 0.883143 2.99606
lowerneck -18.2814 -6.84652 -13.5971
upperneck 14.8394 -8.63365 14.7427
head 8.93402 -3.43915 6.15299
lclavicle -1.19271e-14 2.06736e-14 0
lhumerus -47.1904 -9.43243 95.021
lradius 29.1628 0 0
lwrist 11.4164 0 0
lhand -12.6424 -23.9726 0
lfingers 7.12502 0 0
lthumb 13.4379 5.57398 0
rclavicle -1.19271e-14 2.06736e-14 0
rhumerus -33.5527 9.42566 -79.2296
rradius 49.904 0 0
rwrist -25.6261 0 0
rhand -33.8481 -30.0312 0
rfingers 7.12502 0 0
rthumb -7.03297 -59.8943 0
